<svg xmlns="http://www.w3.org/2000/svg" viewBox="0 0 64 64">
  <defs>
    <linearGradient id="g" x1="0" y1="0" x2="0" y2="1">
      <stop offset="0" stop-color="#3A8DFF"/>
      <stop offset="1" stop-color="#0060DF"/>
    </linearGradient>
  </defs>
  <rect width="64" height="64" rx="14" fill="url(#g)"/>
  <path d="M22 14h14l10 10v24a4 4 0 0 1-4 4H22a4 4 0 0 1-4-4V18a4 4 0 0 1 4-4z" fill="#fff"/>
  <path d="M36 14v8a2 2 0 0 0 2 2h8" fill="#CFE2FF"/>
  <path d="M25 42c3-6 5-9 7-9s1 6 3 6 3-3 5-3" stroke="#0A6CFF" stroke-width="2.6" fill="none" stroke-linecap="round"/>
</svg>
